<svg data-name="Layer 2" xmlns="http://www.w3.org/2000/svg" viewBox="0 0 29.48 93.85">
  <path d="M3.35 42.12c1.66 0 2.84-.47 3.56-1.4.72-.94 1.08-2.45 1.08-4.54V13.61c0-3.31.56-5.96 1.67-7.94q1.68-2.97 5.4-4.32Q18.795 0 24.84 0h4.64v9.4c-3.82 0-6.48.59-7.99 1.78s-2.27 3.15-2.27 5.89v18.47c0 2.52-.43 4.36-1.3 5.51-.86 1.15-2.05 2.12-3.56 2.92-1.51.79-3.28 1.94-5.29 3.46l-5.72 4.32H0v-9.61h3.35Zm5.72 4.32c2.02 1.51 3.78 2.66 5.29 3.46 1.51.79 2.7 1.77 3.56 2.92s1.3 3.02 1.3 5.62V76.8c0 2.66.76 4.61 2.27 5.83s4.18 1.84 7.99 1.84v9.4h-4.64c-4.03 0-7.29-.45-9.77-1.35s-4.28-2.36-5.4-4.37C8.55 86.13 8 83.51 8 80.27V57.7c0-2.09-.36-3.6-1.08-4.54s-1.91-1.4-3.56-1.4H0v-9.61h3.35l5.72 4.32Z" style="fill:#ffd670;stroke-width:0" data-name="Layer 2"/>
</svg>