<?xml version="1.0" encoding="UTF-8"?>
<svg id="Layer_2" data-name="Layer 2" xmlns="http://www.w3.org/2000/svg" viewBox="0 0 1552.71 442.27">
  <defs>
    <style>
      .cls-1 {
        fill: #fff;
      }
    </style>
  </defs>
  <g id="Layer_2-2" data-name="Layer 2">
    <path class="cls-1" d="M668.08,0H73.24C32.79,0,0,32.79,0,73.24v295.79c0,40.45,32.79,73.24,73.24,73.24h594.84c40.45,0,73.24-32.79,73.24-73.24V73.24c0-40.45-32.79-73.24-73.24-73.24ZM239.55,354.26c-1.76,3.04-4.92,5.39-7.95,7.15-2.95,1.7-6.52,2.92-10.17,2.92-4.66,0-4.66-.9-9.33-.9s-4.66.85-9.33.85-4.67.2-9.33.2-4.67-1.66-9.33-1.66-4.67.03-9.33.03-4.67,1.75-9.33,1.75-4.67-1.32-9.33-1.32-4.67.59-9.34.59-4.66-.45-9.33-.45-4.67.98-9.34.98-4.67.18-9.34.18c-3.64,0-7.19-1.51-10.13-3.22-3.04-1.75-5.89-4.26-7.64-7.29-1.7-2.94-2.89-6.62-2.89-10.26,0-4.55.18-4.55.18-9.09s1.11-4.54,1.11-9.08-1.09-4.55-1.09-9.09-.12-4.54-.12-9.08.71-4.55.71-9.09-.61-4.54-.61-9.08-.01-4.54-.01-9.08.09-4.54.09-9.08-.29-4.55-.29-9.09.44-4.54.44-9.08-.57-4.54-.57-9.09.3-4.54.3-9.08-.16-4.54-.16-9.09-.08-4.54-.08-9.08-.19-4.55-.19-9.09.9-4.54.9-9.08.18-4.55.18-9.09-.1-4.55-.1-9.09-.05-4.54-.05-9.09.99-4.54.99-9.08-1.45-4.55-1.45-9.09-.06-4.54-.06-9.09-.09-4.54-.09-9.08-.16-4.55-.16-9.1.18-4.54.18-9.08.79-4.55.79-9.1-1.01-4.55-1.01-9.09c0-3.65,1.98-6.96,3.69-9.9,1.75-3.04,3.74-6.3,6.78-8.06,2.94-1.7,6.72-2.85,10.36-2.85,4.44,0,4.44.88,8.89.88s4.44.75,8.88.75,4.45.14,8.89.14c3.65,0,7.52-.79,10.47.92,3.03,1.75,5.48,4.86,7.24,7.89,1.7,2.95,1.76,6.58,1.76,10.23,0,4.51,1.36,4.51,1.36,9.02s-.41,4.51-.41,9.03-.4,4.51-.4,9.02.59,4.52.59,9.03-.86,4.51-.86,9.03-.55,4.51-.55,9.03.52,4.51.52,9.02,1.02,4.52,1.02,9.03-.49,4.52-.49,9.04-.4,4.51-.4,9.03.39,4.51.39,9.03-.21,4.51-.21,9.03-1,4.51-1,9.03.73,4.51.73,9.03.98,4.51.98,9.03-.01,4.51-.01,9.03.08,4.51.08,9.03-.75,4.51-.75,9.03-.35,4.52-.35,9.04.27,4.51.27,9.03.27,4.52.27,9.04-3.26,5.65-.01,8.79c3.35,3.25,4.43-.29,9.09-.29s4.67.01,9.33.01,4.67,1.26,9.34,1.26,4.66-1.42,9.33-1.42,4.67,1.43,9.34,1.43,4.66-.48,9.33-.48c3.65,0,6.88,1.03,9.82,2.73,3.04,1.76,5.9,3.88,7.66,6.92,1.7,2.94,1.78,6.44,1.78,10.09,0,4.44.87,4.44.87,8.88s-.1,4.44-.1,8.89.18,4.44.18,8.89c0,3.64-.39,7.51-2.09,10.45ZM336.25,227.03c3.28,3.28,2.1,4.47,5.38,7.75,3.29,3.28,3.21,3.36,6.49,6.64,3.29,3.29,3.8,2.78,7.08,6.06,3.28,3.28,2.88,3.69,6.16,6.97,3.28,3.28,3.11,3.46,6.39,6.74,3.28,3.28,3.53,3.04,6.82,6.32,3.28,3.29,3.5,3.07,6.78,6.35,3.29,3.29,3.51,3.07,6.79,6.35,3.29,3.29,2.65,3.92,5.93,7.21,3.29,3.28,4.29,2.28,7.57,5.56,3.29,3.29,2.25,4.33,5.53,7.62,3.29,3.29,3.62,2.96,6.91,6.24,3.29,3.29,4.27,2.31,7.56,5.6,2.47,2.46,3.28,6.14,4.12,9.28.87,3.24,1.7,6.79.83,10.03-.83,3.15-3.34,5.74-5.81,8.2-3,3.01-2.28,3.74-5.28,6.74-3.01,3.01-3.36,2.66-6.37,5.66-3.01,3.01-3.29,2.73-6.29,5.74-2.47,2.47-5.27,4.46-8.41,5.3-3.24.86-6.74.66-9.98-.21-3.14-.84-5.41-3.21-7.88-5.68-3.24-3.24-3.76-2.73-7.01-5.98s-3.95-2.55-7.2-5.8-3.24-3.26-6.49-6.51c-3.25-3.25-3.3-3.19-6.55-6.44s-2.73-3.78-5.98-7.03-3-3.5-6.25-6.75-3.44-3.06-6.69-6.31-3.44-3.06-6.69-6.31-3.31-3.19-6.57-6.44c-3.24-3.25-3.39-3.1-6.63-6.35q-3.25-3.25-6.5-6.51c-3.25-3.25-2.35-4.14-5.6-7.39s-4.26-2.25-7.51-5.5-2.24-4.26-5.49-7.51-3.59-2.92-6.84-6.17-3.18-3.32-6.43-6.57-3.64-2.87-6.89-6.12c-3.26-3.26-2.5-4.01-5.76-7.26-3.25-3.26-3.96-2.55-7.22-5.8-2.46-2.47-4.16-5.49-5-8.63-.87-3.24-.18-6.55.69-9.79.84-3.15,2.29-5.9,4.76-8.37.8-.8,1.38-1.41,1.86-1.93-.59.39-1.33.81-2.34,1.34-.71.37-1.04.53-1.09.53.18-.21,2.36-1.57,4.56-3.17.74-.87,1.46-1.72,3.07-3.33,3.15-3.15,2.95-3.36,6.1-6.51,1.28-1.28,2.05-2.03,2.73-2.67.01,0,.01-.01.01-.01.76-1.18,1.26-2.19,3.14-4.07,3.16-3.16,3.51-2.81,6.67-5.97,1.47-1.47,2.35-2.16,3.18-2.81.01-.01.01-.02.01-.02.32-.44.62-.88,1.02-1.38,0-.02.02-.04.04-.06.42-.64.98-1.35,1.86-2.24.01,0,.06.02.13.06,3.25-3.25,3.02-3.51,6.29-6.78,3.28-3.29,3.31-3.26,6.59-6.54,3.29-3.28,4.35-2.22,7.63-5.5,3.29-3.29,2.86-3.72,6.14-7,3.28-3.28,3.39-3.18,6.67-6.46,3.28-3.28,3.52-3.04,6.81-6.32,3.28-3.28,3.39-3.17,6.68-6.45,3.28-3.29,2.24-4.33,5.52-7.62,3.28-3.28,3.31-3.25,6.6-6.53,3.28-3.29,3.93-2.64,7.22-5.92,3.28-3.28,3-3.57,6.28-6.85,3.29-3.29,3.95-2.63,7.23-5.91,3.29-3.29,3-3.58,6.29-6.87,3.29-3.29,2.26-4.31,5.55-7.6,2.46-2.46,6.39-2.46,9.53-3.3,3.25-.86,6.66-2.73,9.9-1.87,3.14.84,6.48,2.8,8.95,5.26,3,3.01,1.83,4.18,4.84,7.18,3,3.01,3.15,2.86,6.16,5.87,3.01,3.01,3.03,2.98,6.04,5.99,2.46,2.46,3.71,5.26,4.55,8.4.86,3.24,2.62,6.72,1.75,9.96-.84,3.14-3.34,5.96-5.81,8.43-3.28,3.28-3.21,3.35-6.49,6.64-3.28,3.28-3.26,3.3-6.55,6.58-3.28,3.29-3.13,3.43-6.42,6.72-3.28,3.28-4.02,2.54-7.3,5.82-3.28,3.28-2.84,3.73-6.12,7.01-3.28,3.29-4.03,2.53-7.31,5.82-3.29,3.28-2.98,3.58-6.27,6.87-3.28,3.28-2.71,3.85-5.99,7.14-3.29,3.28-3.94,2.63-7.23,5.91-3.28,3.28-3.37,3.19-6.66,6.48-3.28,3.28-2.31,4.25-5.6,7.53q-3.28,3.28-6.57,6.57c-3.29,3.29-3.18,3.39-6.47,6.68-3.29,3.29-7.34,1.42-7.34,6.07s4.2,2.61,7.49,5.9ZM642.75,282.55c-.12,3.03.09,6.12-.34,9.06-.44,3-1.4,5.93-2.15,8.82-.77,2.92-1.57,5.88-2.63,8.67-1.07,2.82-3.37,5.08-4.73,7.75-1.36,2.69-2.01,5.75-3.64,8.27-1.64,2.52-3.46,4.95-5.35,7.28-1.89,2.34-4.31,4.2-6.43,6.33-2.13,2.12-3.75,4.84-6.08,6.73-2.34,1.89-5.21,3.1-7.73,4.74-2.52,1.63-4.81,3.74-7.49,5.1-2.67,1.35-5.42,2.76-8.24,3.82-2.79,1.06-5.8,1.76-8.72,2.52-2.89.75-5.94,1.03-8.94,1.47-2.94.44-5.94,1.28-8.97,1.4-1.08.04-2.2-.46-3.28-.45-3.04,0-6.07-.45-9.07-.78-3.02-.33-5.87-1.46-8.83-2.11-2.97-.65-5.75-1.65-8.63-2.61-2.87-.96-6.23-.68-8.99-1.94-2.75-1.26-5.47-2.73-8.08-4.29-2.6-1.54-4.34-4.38-6.76-6.21-2.52-1.89-5.5-3.18-7.78-5.33-2.29-2.16-4.07-4.78-6.1-7.17-2.03-2.4-3.45-5.18-5.2-7.78-1.76-2.61-3.78-4.97-5.24-7.76-1.45-2.78-3.88-5.15-5.02-8.08-1.14-2.92-2.17-5.99-2.97-9.03-.9-3.39-1.06-7.23-.39-10.55.68-3.31,2.23-6.85,4.37-9.63,2.16-2.81,5.16-5.33,8.21-6.84,3.06-1.51,6.9-1.53,10.43-1.53,4.14,0,4.14-.36,8.28-.36,3.3,0,6.84.25,9.69,1.52,2.93,1.3,5.6,3.7,7.71,6.1,2.07,2.34,3.61,5.43,4.57,8.57.85,2.78.95,5.93,2.44,8.29,1.53,2.43,4.22,4,6.31,5.89,2.11,1.91,4.63,3.07,7.17,4.33,2.52,1.26,4.93,2.73,7.75,3.28,2.74.53,5.5-.19,8.4-.41,3.03-.23,6.17.5,8.91-.54,2.8-1.06,4.81-3.53,7.18-5.31,2.37-1.79,4.84-3.39,6.63-5.77,1.78-2.36,3.32-4.91,4.38-7.71,1.04-2.74,1.1-5.69,1.33-8.72.22-2.94.97-5.84.41-8.64-.56-2.84-2.19-5.32-3.52-7.9-1.3-2.53-3.14-4.58-5.14-6.74-1.98-2.13-4.09-3.79-6.53-5.28-2.47-1.5-4.93-2.56-7.7-3.34-2.76-.78-5.4-1.86-8.31-1.86-2.24,0-4.51.48-6.72.31-2.94-.22-5.91-.61-8.77-1.13-2.89-.53-5.54-2.15-8.34-2.97-2.81-.82-5.53-1.82-8.23-2.94-2.71-1.11-5.49-2.04-8.07-3.44-2.56-1.39-5.27-2.61-7.69-4.27-2.4-1.65-4.46-3.81-6.7-5.72-2.22-1.87-4.79-3.45-6.83-5.57-1.99-2.07-4.05-4.12-5.8-6.33-1.77-2.24-3.39-4.67-4.9-7.05-1.54-2.4-1.72-5.56-2.99-8.09-1.28-2.54-2.6-5-3.61-7.65-1-2.65-1.53-5.39-2.26-8.14-.73-2.74-2.86-5.18-3.31-7.99-.45-2.79.48-5.76.31-8.61-.17-2.82-.5-5.62-.39-8.47.12-3.04-.28-6.1.15-9.05.44-2.99,2.32-5.66,3.07-8.54.76-2.93.77-6.03,1.83-8.83,1.06-2.82,2.34-5.55,3.69-8.22,1.36-2.68,3.24-5.04,4.88-7.56,1.63-2.52,3.29-4.98,5.18-7.31,1.89-2.34,4.1-4.33,6.22-6.45,2.12-2.13,4.46-3.9,6.8-5.79,2.33-1.89,3.94-4.76,6.46-6.4,2.51-1.63,5.36-2.76,8.05-4.12,2.67-1.35,5.78-1.62,8.6-2.69,2.8-1.06,5.35-2.75,8.27-3.51,2.89-.75,5.74-1.87,8.74-2.31,2.94-.44,6-.23,9.03-.35,3.22-.13,6.4.25,9.6.49,3.21.24,6.4.42,9.55,1.03,3.16.6,6.06,2.04,9.12,3,3.07.96,6.32,1.31,9.26,2.61,2.94,1.3,5.44,3.37,8.22,5,2.76,1.63,5.89,2.67,8.47,4.61,2.51,1.89,4.86,4,7.14,6.16,2.29,2.16,4.59,4.33,6.62,6.72,2.03,2.4,4.54,4.53,6.29,7.13,1.76,2.61,2.9,5.67,4.36,8.45,1.45,2.79,2.96,5.61,4.1,8.54,1.14,2.92,1.26,6.2,2.07,9.24.89,3.39,1.8,6.86,1.13,10.17-.67,3.31-2.03,6.79-4.17,9.57-2.16,2.8-5.84,3.7-8.9,5.21-3.06,1.5-6.02,2.24-9.56,2.24-4.14,0-4.14,1.75-8.28,1.75-3.29,0-6.22-1.96-9.07-3.23-2.93-1.3-5.79-2.7-7.91-5.1-2.06-2.34-3.24-5.29-4.2-8.44-.85-2.78-2.92-4.94-4.41-7.29-1.54-2.43-3.4-4.36-5.49-6.25-2.11-1.9-4.07-3.85-6.62-5.12-2.52-1.25-5.21-1.91-8.03-2.45-2.73-.53-5.43-.55-8.34-.33-3.02.22-5.82.68-8.55,1.72-2.81,1.06-5.97,1.57-8.33,3.35-2.38,1.79-3.75,4.69-5.54,7.07-1.78,2.36-3.06,4.9-4.13,7.71-1.04,2.73-2.37,5.43-2.6,8.46-.22,2.93.56,5.74,1.11,8.53.57,2.84,1.49,5.44,2.81,8.02,1.3,2.53,2.82,4.85,4.82,7.01,1.98,2.13,4.29,3.65,6.73,5.14,2.46,1.51,4.83,3.02,7.6,3.8,2.76.78,5.56.62,8.46.62,3.34,0,3.37.16,6.7.29.13,0-.03.09.09.11,2.94.23,5.87.53,8.73,1.05,2.89.53,5.87,1.04,8.67,1.86,2.81.82,5.32,2.66,8.02,3.77,2.71,1.11,5.27,2.53,7.84,3.93,2.57,1.38,5.11,2.82,7.53,4.48,2.41,1.64,4.76,3.38,7.01,5.28,2.21,1.88,3.63,4.57,5.68,6.7,1.98,2.06,4.92,3.23,6.67,5.45,1.77,2.24,3.5,4.56,5.02,6.94,1.53,2.41,3.03,4.89,4.31,7.42,1.28,2.54,2.6,5.14,3.61,7.79,1.01,2.65,1.73,5.48,2.47,8.23.73,2.73.56,5.7,1.02,8.51.44,2.79,1.76,5.54,1.93,8.39.17,2.82-.38,5.72-.49,8.58Z"/>
    <g>
      <g>
        <path class="cls-1" d="M876.13,130.75c-2.41,0-4.58-.55-6.52-1.66-1.94-1.11-2.91-2.77-2.91-4.99V35.91c0-2.31,1.13-3.97,3.4-4.99,2.26-1.02,4.74-1.53,7.42-1.53s5.15.51,7.42,1.53c2.26,1.02,3.4,2.68,3.4,4.99v75.98h31.61c2.12,0,3.7.97,4.71,2.91,1.02,1.94,1.53,4.11,1.53,6.52s-.51,4.58-1.53,6.52c-1.02,1.94-2.59,2.91-4.71,2.91h-43.81Z"/>
        <path class="cls-1" d="M941.84,130.75c-1.48,0-3.03-.23-4.64-.69-1.62-.46-3.12-1.09-4.51-1.87-1.39-.78-2.52-1.71-3.4-2.77-.88-1.06-1.32-2.24-1.32-3.54,0-.28.09-.78.28-1.53l25.79-84.57c.74-2.4,2.47-4.2,5.2-5.41,2.73-1.2,5.71-1.8,8.94-1.8s6.22.6,8.94,1.8c2.72,1.2,4.46,3.01,5.2,5.41l25.93,84.57c.18.74.28,1.25.28,1.53,0,1.3-.44,2.47-1.32,3.54-.88,1.06-2.01,1.99-3.4,2.77-1.39.79-2.89,1.41-4.51,1.87-1.62.46-3.17.69-4.64.69-1.76,0-3.26-.3-4.51-.9-1.25-.6-2.1-1.64-2.57-3.12l-4.71-17.33h-29.25l-4.71,17.33c-.46,1.48-1.32,2.52-2.57,3.12-1.25.6-2.75.9-4.51.9ZM978.31,92.76l-10.12-37.16-10.12,37.16h20.24Z"/>
        <path class="cls-1" d="M1064.41,35.91c0-2.31,1.11-3.97,3.33-4.99,2.22-1.02,4.71-1.53,7.49-1.53,1.29,0,2.59.12,3.88.35,1.29.23,2.45.62,3.47,1.18,1.02.55,1.85,1.25,2.5,2.08.65.83.97,1.8.97,2.91v62.95c0,6.01-.9,11.07-2.7,15.18s-4.28,7.49-7.42,10.12c-3.14,2.63-6.84,4.53-11.09,5.68-4.25,1.15-8.83,1.73-13.73,1.73s-9.48-.58-13.73-1.73c-4.25-1.15-7.95-3.05-11.09-5.68-3.14-2.63-5.62-6.01-7.42-10.12s-2.7-9.17-2.7-15.18v-62.95c0-2.31,1.11-3.97,3.33-4.99,2.22-1.02,4.71-1.53,7.49-1.53,1.29,0,2.59.12,3.88.35,1.29.23,2.45.62,3.47,1.18,1.02.55,1.85,1.25,2.5,2.08.65.83.97,1.8.97,2.91v62.95c0,4.71,1.18,8.2,3.54,10.47,2.36,2.27,5.61,3.4,9.77,3.4s7.42-1.13,9.77-3.4c2.36-2.26,3.54-5.75,3.54-10.47v-62.95Z"/>
        <path class="cls-1" d="M1100.59,35.91c0-1.75.6-3.28,1.8-4.58,1.2-1.29,2.82-1.94,4.85-1.94h28.7c4.71,0,9.15.49,13.31,1.46,4.16.97,7.79,2.61,10.88,4.92,3.1,2.31,5.52,5.36,7.28,9.15,1.76,3.79,2.63,8.51,2.63,14.14,0,7.76-1.59,13.93-4.78,18.51-3.19,4.58-7.19,7.79-11.99,9.64l16.92,30.64c.46.74.69,1.57.69,2.5,0,1.39-.42,2.75-1.25,4.09-.83,1.34-1.9,2.54-3.19,3.6-1.3,1.06-2.75,1.92-4.37,2.57-1.62.65-3.21.97-4.78.97-1.39,0-2.7-.3-3.95-.9s-2.24-1.64-2.98-3.12l-18.99-36.88h-9.15v33.41c0,2.22-1.13,3.88-3.4,4.99-2.27,1.11-4.74,1.66-7.42,1.66s-5.15-.55-7.42-1.66c-2.27-1.11-3.4-2.77-3.4-4.99V35.91ZM1122.22,48.25v25.79h13.73c3.88,0,6.93-.92,9.15-2.77s3.33-5.22,3.33-10.12-1.11-8.27-3.33-10.12c-2.22-1.85-5.27-2.77-9.15-2.77h-13.73Z"/>
        <path class="cls-1" d="M1181.56,35.91c0-2.31,1.13-3.97,3.4-4.99,2.26-1.02,4.74-1.53,7.42-1.53s5.15.51,7.42,1.53c2.26,1.02,3.4,2.68,3.4,4.99v88.18c0,2.22-1.13,3.88-3.4,4.99-2.27,1.11-4.74,1.66-7.42,1.66s-5.15-.55-7.42-1.66c-2.27-1.11-3.4-2.77-3.4-4.99V35.91Z"/>
        <path class="cls-1" d="M1239.79,71.68h20.8c2.12,0,3.74.86,4.85,2.57,1.11,1.71,1.66,3.67,1.66,5.89,0,1.85-.51,3.67-1.53,5.48-1.02,1.8-2.68,2.7-4.99,2.7h-20.8v23.57h37.16c2.12,0,3.74.95,4.85,2.84,1.11,1.9,1.66,4.14,1.66,6.72,0,2.22-.51,4.32-1.53,6.31-1.02,1.99-2.68,2.98-4.99,2.98h-49.36c-2.41,0-4.58-.55-6.52-1.66-1.94-1.11-2.91-2.77-2.91-4.99V36.05c0-2.22.97-3.88,2.91-4.99,1.94-1.11,4.11-1.66,6.52-1.66h49.36c2.31,0,3.97.99,4.99,2.98,1.02,1.99,1.53,4.09,1.53,6.31,0,2.59-.55,4.83-1.66,6.72-1.11,1.9-2.73,2.84-4.85,2.84h-37.16v23.43Z"/>
        <path class="cls-1" d="M1292.89,35.91c0-1.75.6-3.28,1.8-4.58,1.2-1.29,2.82-1.94,4.85-1.94h28.7c4.71,0,9.15.49,13.31,1.46,4.16.97,7.79,2.61,10.88,4.92,3.1,2.31,5.52,5.36,7.28,9.15,1.76,3.79,2.63,8.51,2.63,14.14,0,7.76-1.59,13.93-4.78,18.51-3.19,4.58-7.19,7.79-11.99,9.64l16.92,30.64c.46.74.69,1.57.69,2.5,0,1.39-.42,2.75-1.25,4.09-.83,1.34-1.9,2.54-3.19,3.6-1.3,1.06-2.75,1.92-4.37,2.57-1.62.65-3.21.97-4.78.97-1.39,0-2.7-.3-3.95-.9s-2.24-1.64-2.98-3.12l-18.99-36.88h-9.15v33.41c0,2.22-1.13,3.88-3.4,4.99-2.27,1.11-4.74,1.66-7.42,1.66s-5.15-.55-7.42-1.66c-2.27-1.11-3.4-2.77-3.4-4.99V35.91ZM1314.52,48.25v25.79h13.73c3.88,0,6.93-.92,9.15-2.77s3.33-5.22,3.33-10.12-1.11-8.27-3.33-10.12c-2.22-1.85-5.27-2.77-9.15-2.77h-13.73Z"/>
      </g>
      <g>
        <path class="cls-1" d="M913.15,201.1c0-.92-.09-2.08-.28-3.47-.19-1.39-.69-2.75-1.53-4.09-.83-1.34-2.06-2.5-3.67-3.47-1.62-.97-3.91-1.46-6.86-1.46-3.98,0-7.05,1.13-9.22,3.4-2.17,2.27-3.26,5.75-3.26,10.47v36.74c0,4.71,1.09,8.2,3.26,10.47,2.17,2.27,5.29,3.4,9.36,3.4,2.77,0,4.94-.46,6.52-1.39,1.57-.92,2.77-2.08,3.6-3.47s1.36-2.89,1.59-4.51c.23-1.62.39-3.12.49-4.51.18-2.59,1.32-4.32,3.4-5.2,2.08-.88,4.51-1.32,7.28-1.32,3.79,0,6.56.67,8.32,2.01,1.75,1.34,2.63,4.09,2.63,8.25,0,4.62-.88,8.73-2.63,12.34-1.76,3.6-4.21,6.63-7.35,9.08-3.14,2.45-6.82,4.32-11.02,5.62-4.21,1.29-8.8,1.94-13.8,1.94-4.53,0-8.8-.58-12.82-1.73s-7.56-3.05-10.61-5.68c-3.05-2.63-5.45-6.01-7.21-10.12-1.76-4.11-2.63-9.17-2.63-15.18v-36.74c0-5.91.88-10.95,2.63-15.11,1.75-4.16,4.16-7.56,7.21-10.19s6.59-4.53,10.61-5.68c4.02-1.15,8.29-1.73,12.82-1.73,4.99,0,9.59.6,13.8,1.8,4.2,1.2,7.88,2.98,11.02,5.34,3.14,2.36,5.59,5.25,7.35,8.67,1.75,3.42,2.63,7.35,2.63,11.79,0,4.16-.88,6.91-2.63,8.25-1.76,1.34-4.48,2.01-8.18,2.01-2.96,0-5.45-.46-7.49-1.39-2.03-.92-3.14-2.63-3.33-5.13Z"/>
        <path class="cls-1" d="M978.59,271.95c-4.81,0-9.27-.58-13.38-1.73-4.11-1.15-7.7-3.05-10.75-5.68-3.05-2.63-5.45-6.01-7.21-10.12-1.76-4.11-2.63-9.17-2.63-15.18v-36.74c0-5.91.88-10.95,2.63-15.11,1.75-4.16,4.16-7.56,7.21-10.19s6.63-4.53,10.75-5.68c4.11-1.15,8.57-1.73,13.38-1.73s9.29.58,13.45,1.73c4.16,1.16,7.76,3.05,10.81,5.68,3.05,2.63,5.45,6.03,7.21,10.19,1.75,4.16,2.63,9.2,2.63,15.11v36.74c0,6.01-.88,11.07-2.63,15.18-1.76,4.11-4.16,7.49-7.21,10.12-3.05,2.63-6.65,4.53-10.81,5.68s-8.64,1.73-13.45,1.73ZM991.07,202.49c0-4.8-1.11-8.32-3.33-10.54-2.22-2.22-5.27-3.33-9.15-3.33s-6.91,1.11-9.08,3.33c-2.17,2.22-3.26,5.73-3.26,10.54v36.74c0,4.81,1.09,8.32,3.26,10.54,2.17,2.22,5.2,3.33,9.08,3.33s6.93-1.11,9.15-3.33c2.22-2.22,3.33-5.73,3.33-10.54v-36.74Z"/>
        <path class="cls-1" d="M1075.36,235.21c-.93,1.57-2.03,2.63-3.33,3.19-1.3.55-2.59.83-3.88.83s-2.54-.28-3.74-.83c-1.2-.55-2.22-1.62-3.05-3.19l-13.17-24.12v53.38c0,2.22-1.13,3.88-3.4,4.99-2.27,1.11-4.74,1.66-7.42,1.66s-5.15-.55-7.42-1.66c-2.27-1.11-3.4-2.77-3.4-4.99v-83.88c0-1.94.3-3.6.9-4.99.6-1.39,1.41-2.52,2.43-3.4,1.02-.88,2.17-1.5,3.47-1.87,1.29-.37,2.63-.55,4.02-.55,1.94,0,3.65.09,5.13.28,1.48.19,2.84.65,4.09,1.39,1.25.74,2.47,1.83,3.67,3.26,1.2,1.43,2.5,3.4,3.88,5.89l14.28,24.96,14.28-24.96c1.39-2.5,2.68-4.46,3.88-5.89,1.2-1.43,2.43-2.52,3.67-3.26,1.25-.74,2.61-1.2,4.09-1.39,1.48-.18,3.19-.28,5.13-.28,2.77,0,5.27.81,7.49,2.43,2.22,1.62,3.33,4.42,3.33,8.39v83.88c0,2.22-1.13,3.88-3.4,4.99-2.27,1.11-4.74,1.66-7.42,1.66s-5.15-.55-7.42-1.66c-2.27-1.11-3.4-2.77-3.4-4.99v-51.99l-13.31,22.74Z"/>
        <path class="cls-1" d="M1125.27,176.28c0-1.75.74-3.28,2.22-4.58,1.48-1.29,3.42-1.94,5.82-1.94h28.7c4.53,0,8.8.58,12.83,1.73,4.02,1.16,7.49,2.98,10.4,5.48,2.91,2.5,5.22,5.78,6.93,9.84,1.71,4.07,2.57,9.01,2.57,14.84v.69c0,5.82-.88,10.77-2.63,14.84-1.76,4.07-4.16,7.4-7.21,9.98-3.05,2.59-6.66,4.46-10.81,5.62-4.16,1.16-8.64,1.73-13.45,1.73h-13.73v29.95c0,2.22-1.13,3.88-3.4,4.99-2.27,1.11-4.74,1.66-7.42,1.66s-5.15-.55-7.42-1.66c-2.27-1.11-3.4-2.77-3.4-4.99v-88.18ZM1146.9,188.62v29.25h13.73c3.88,0,6.93-1.13,9.15-3.4,2.22-2.26,3.33-5.75,3.33-10.47v-1.53c0-4.71-1.11-8.2-3.33-10.47-2.22-2.26-5.27-3.4-9.15-3.4h-13.73Z"/>
        <path class="cls-1" d="M1251.99,176.28c0-2.31,1.11-3.97,3.33-4.99,2.22-1.02,4.71-1.53,7.49-1.53,1.29,0,2.59.12,3.88.35,1.29.23,2.45.62,3.47,1.18,1.02.55,1.85,1.25,2.5,2.08.65.83.97,1.8.97,2.91v62.95c0,6.01-.9,11.07-2.7,15.18-1.8,4.11-4.28,7.49-7.42,10.12-3.14,2.63-6.84,4.53-11.09,5.68-4.25,1.15-8.83,1.73-13.73,1.73s-9.48-.58-13.73-1.73c-4.25-1.15-7.95-3.05-11.09-5.68-3.14-2.63-5.62-6.01-7.42-10.12s-2.7-9.17-2.7-15.18v-62.95c0-2.31,1.11-3.97,3.33-4.99,2.22-1.02,4.71-1.53,7.49-1.53,1.29,0,2.59.12,3.88.35,1.29.23,2.45.62,3.47,1.18,1.02.55,1.85,1.25,2.5,2.08.65.83.97,1.8.97,2.91v62.95c0,4.71,1.18,8.2,3.54,10.47,2.36,2.27,5.61,3.4,9.77,3.4s7.42-1.13,9.77-3.4c2.36-2.26,3.54-5.75,3.54-10.47v-62.95Z"/>
        <path class="cls-1" d="M1348.21,169.77c2.31,0,3.97,1.02,4.99,3.05,1.02,2.03,1.53,4.21,1.53,6.52,0,2.68-.55,4.99-1.66,6.93-1.11,1.94-2.73,2.91-4.85,2.91h-19.13v75.28c0,2.22-1.13,3.88-3.4,4.99-2.27,1.11-4.74,1.66-7.42,1.66s-5.15-.55-7.42-1.66c-2.27-1.11-3.4-2.77-3.4-4.99v-75.28h-19.13c-2.13,0-3.74-.97-4.85-2.91-1.11-1.94-1.66-4.25-1.66-6.93,0-2.31.51-4.48,1.53-6.52,1.02-2.03,2.68-3.05,4.99-3.05h59.9Z"/>
        <path class="cls-1" d="M1363.33,176.28c0-2.31,1.13-3.97,3.4-4.99,2.26-1.02,4.74-1.53,7.42-1.53s5.15.51,7.42,1.53c2.26,1.02,3.4,2.68,3.4,4.99v88.18c0,2.22-1.13,3.88-3.4,4.99-2.27,1.11-4.74,1.66-7.42,1.66s-5.15-.55-7.42-1.66c-2.27-1.11-3.4-2.77-3.4-4.99v-88.18Z"/>
        <path class="cls-1" d="M1459.96,271.12c-2.5,0-4.81-.37-6.93-1.11-2.13-.74-3.84-2.31-5.13-4.71l-26.34-47.97v47.14c0,2.22-1.13,3.88-3.4,4.99-2.27,1.11-4.74,1.66-7.42,1.66s-5.15-.55-7.42-1.66c-2.27-1.11-3.4-2.77-3.4-4.99v-88.04c0-2.31,1.13-4,3.4-5.06,2.26-1.06,4.74-1.59,7.42-1.59,1.94,0,3.6.09,4.99.28,1.39.19,2.68.62,3.88,1.32,1.2.69,2.36,1.78,3.47,3.26,1.11,1.48,2.31,3.47,3.6,5.96l22.46,42.84v-47.14c0-2.31,1.13-3.97,3.4-4.99,2.26-1.02,4.74-1.53,7.42-1.53s5.15.51,7.42,1.53c2.26,1.02,3.4,2.68,3.4,4.99v88.18c0,2.22-1.13,3.88-3.4,4.99-2.27,1.11-4.74,1.66-7.42,1.66Z"/>
        <path class="cls-1" d="M1531.08,201.1c0-1.2-.09-2.54-.28-4.02-.19-1.48-.69-2.84-1.53-4.09-.83-1.25-2.06-2.29-3.67-3.12-1.62-.83-3.91-1.25-6.86-1.25-3.98,0-7.05,1.13-9.22,3.4-2.17,2.27-3.26,5.75-3.26,10.47v36.74c0,4.71,1.09,8.2,3.26,10.47,2.17,2.27,5.2,3.4,9.08,3.4s6.93-1.13,9.15-3.4c2.22-2.26,3.33-5.75,3.33-10.47v-4.71h-8.18c-2.13,0-3.74-.85-4.85-2.57-1.11-1.71-1.66-3.63-1.66-5.75s.55-3.93,1.66-5.68c1.11-1.75,2.72-2.63,4.85-2.63h23.29c2.13,0,3.74.67,4.85,2.01,1.11,1.34,1.66,2.93,1.66,4.78v14.56c0,6.01-.88,11.07-2.63,15.18-1.76,4.11-4.16,7.49-7.21,10.12-3.05,2.63-6.65,4.53-10.81,5.68s-8.64,1.73-13.45,1.73-9.27-.58-13.38-1.73c-4.11-1.15-7.7-3.05-10.75-5.68-3.05-2.63-5.45-6.01-7.21-10.12-1.76-4.11-2.63-9.17-2.63-15.18v-36.74c0-5.91.88-10.95,2.63-15.11,1.75-4.16,4.16-7.56,7.21-10.19s6.59-4.53,10.61-5.68c4.02-1.15,8.29-1.73,12.82-1.73,4.99,0,9.59.6,13.8,1.8,4.2,1.2,7.88,2.98,11.02,5.34,3.14,2.36,5.59,5.25,7.35,8.67,1.75,3.42,2.63,7.35,2.63,11.79,0,4.16-.88,6.91-2.63,8.25-1.76,1.34-4.48,2.01-8.18,2.01-2.96,0-5.48-.46-7.56-1.39-2.08-.92-3.17-2.63-3.26-5.13Z"/>
      </g>
      <g>
        <path class="cls-1" d="M899.7,394.3c1.57,0,3.16-.16,4.78-.49,1.62-.32,3.07-.85,4.37-1.59,1.29-.74,2.33-1.68,3.12-2.84.78-1.15,1.18-2.57,1.18-4.23,0-2.77-1.09-5.11-3.26-7-2.17-1.89-4.88-3.65-8.11-5.27-3.24-1.62-6.77-3.28-10.61-4.99-3.84-1.71-7.37-3.81-10.61-6.31-3.24-2.5-5.94-5.55-8.11-9.15-2.17-3.6-3.26-8.13-3.26-13.59,0-5.18,1.04-9.59,3.12-13.24,2.08-3.65,4.78-6.61,8.11-8.87,3.33-2.26,7.12-3.93,11.37-4.99,4.25-1.06,8.55-1.59,12.89-1.59,1.85,0,4.32.14,7.42.42,3.1.28,6.15.83,9.15,1.66,3,.83,5.59,2.06,7.76,3.67,2.17,1.62,3.26,3.77,3.26,6.45,0,.92-.16,2.03-.49,3.33-.32,1.3-.83,2.54-1.53,3.74-.69,1.2-1.59,2.22-2.7,3.05-1.11.83-2.41,1.25-3.88,1.25-1.3,0-2.47-.28-3.54-.83-1.06-.55-2.27-1.15-3.6-1.8-1.34-.65-2.94-1.25-4.78-1.8-1.85-.55-4.21-.83-7.07-.83-4.99,0-8.55.86-10.68,2.57-2.13,1.71-3.19,3.63-3.19,5.75,0,2.31,1.09,4.25,3.26,5.82,2.17,1.57,4.87,3.1,8.11,4.58,3.23,1.48,6.77,3.07,10.61,4.78,3.83,1.71,7.37,3.91,10.61,6.59,3.23,2.68,5.94,5.96,8.11,9.84,2.17,3.88,3.26,8.73,3.26,14.56,0,4.99-.86,9.41-2.57,13.24-1.71,3.84-4.11,7.05-7.21,9.64-3.1,2.59-6.77,4.55-11.02,5.89-4.25,1.34-8.87,2.01-13.86,2.01-4.53,0-8.83-.51-12.89-1.53-4.07-1.02-7.63-2.36-10.68-4.02s-5.45-3.58-7.21-5.75c-1.76-2.17-2.63-4.41-2.63-6.72,0-1.2.25-2.47.76-3.81.51-1.34,1.18-2.59,2.01-3.74.83-1.15,1.82-2.12,2.98-2.91,1.15-.78,2.38-1.18,3.67-1.18,1.66,0,3.21.53,4.64,1.59,1.43,1.06,3,2.24,4.71,3.54,1.71,1.3,3.7,2.47,5.96,3.54,2.26,1.06,5.01,1.59,8.25,1.59Z"/>
        <path class="cls-1" d="M978.31,413.15c-4.81,0-9.27-.58-13.38-1.73-4.11-1.15-7.7-3.05-10.75-5.68-3.05-2.63-5.45-6.01-7.21-10.12-1.76-4.11-2.63-9.17-2.63-15.18v-36.74c0-5.91.88-10.95,2.63-15.11,1.75-4.16,4.16-7.56,7.21-10.19s6.63-4.53,10.75-5.68c4.11-1.15,8.57-1.73,13.38-1.73s9.29.58,13.45,1.73c4.16,1.16,7.76,3.05,10.81,5.68,3.05,2.63,5.45,6.03,7.21,10.19,1.75,4.16,2.63,9.2,2.63,15.11v36.74c0,6.01-.88,11.07-2.63,15.18-1.76,4.11-4.16,7.49-7.21,10.12-3.05,2.63-6.65,4.53-10.81,5.68-4.16,1.15-8.64,1.73-13.45,1.73ZM990.79,343.69c0-4.8-1.11-8.32-3.33-10.54-2.22-2.22-5.27-3.33-9.15-3.33s-6.91,1.11-9.08,3.33c-2.17,2.22-3.26,5.73-3.26,10.54v36.74c0,4.81,1.09,8.32,3.26,10.54,2.17,2.22,5.2,3.33,9.08,3.33s6.93-1.11,9.15-3.33c2.22-2.22,3.33-5.73,3.33-10.54v-36.74Z"/>
        <path class="cls-1" d="M1071.62,342.3c0-.92-.09-2.08-.28-3.47-.19-1.39-.69-2.75-1.53-4.09-.83-1.34-2.06-2.5-3.67-3.47-1.62-.97-3.91-1.46-6.86-1.46-3.98,0-7.05,1.13-9.22,3.4-2.17,2.27-3.26,5.75-3.26,10.47v36.74c0,4.71,1.09,8.2,3.26,10.47,2.17,2.27,5.29,3.4,9.36,3.4,2.77,0,4.94-.46,6.52-1.39,1.57-.92,2.77-2.08,3.6-3.47s1.36-2.89,1.59-4.51c.23-1.62.39-3.12.49-4.51.18-2.59,1.32-4.32,3.4-5.2,2.08-.88,4.51-1.32,7.28-1.32,3.79,0,6.56.67,8.32,2.01,1.75,1.34,2.63,4.09,2.63,8.25,0,4.62-.88,8.73-2.63,12.34-1.76,3.6-4.21,6.63-7.35,9.08-3.14,2.45-6.82,4.32-11.02,5.62-4.21,1.29-8.8,1.94-13.8,1.94-4.53,0-8.8-.58-12.82-1.73-4.02-1.15-7.56-3.05-10.61-5.68-3.05-2.63-5.45-6.01-7.21-10.12-1.76-4.11-2.63-9.17-2.63-15.18v-36.74c0-5.91.88-10.95,2.63-15.11,1.75-4.16,4.16-7.56,7.21-10.19s6.59-4.53,10.61-5.68c4.02-1.15,8.29-1.73,12.82-1.73,4.99,0,9.59.6,13.8,1.8,4.2,1.2,7.88,2.98,11.02,5.34,3.14,2.36,5.59,5.25,7.35,8.67,1.75,3.42,2.63,7.35,2.63,11.79,0,4.16-.88,6.91-2.63,8.25-1.76,1.34-4.48,2.01-8.18,2.01-2.96,0-5.45-.46-7.49-1.39-2.03-.92-3.14-2.63-3.33-5.13Z"/>
        <path class="cls-1" d="M1104.2,317.49c0-2.31,1.13-3.97,3.4-4.99,2.26-1.02,4.74-1.53,7.42-1.53s5.15.51,7.42,1.53c2.26,1.02,3.4,2.68,3.4,4.99v88.18c0,2.22-1.13,3.88-3.4,4.99-2.27,1.11-4.74,1.66-7.42,1.66s-5.15-.55-7.42-1.66c-2.27-1.11-3.4-2.77-3.4-4.99v-88.18Z"/>
        <path class="cls-1" d="M1162.43,353.26h20.8c2.12,0,3.74.86,4.85,2.57,1.11,1.71,1.66,3.67,1.66,5.89,0,1.85-.51,3.67-1.53,5.48-1.02,1.8-2.68,2.7-4.99,2.7h-20.8v23.57h37.16c2.12,0,3.74.95,4.85,2.84,1.11,1.9,1.66,4.14,1.66,6.72,0,2.22-.51,4.32-1.53,6.31-1.02,1.99-2.68,2.98-4.99,2.98h-49.36c-2.41,0-4.58-.55-6.52-1.66-1.94-1.11-2.91-2.77-2.91-4.99v-88.04c0-2.22.97-3.88,2.91-4.99,1.94-1.11,4.11-1.66,6.52-1.66h49.36c2.31,0,3.97.99,4.99,2.98,1.02,1.99,1.53,4.09,1.53,6.31,0,2.59-.55,4.83-1.66,6.72-1.11,1.9-2.73,2.84-4.85,2.84h-37.16v23.43Z"/>
        <path class="cls-1" d="M1275.56,310.97c2.31,0,3.97,1.02,4.99,3.05,1.02,2.03,1.53,4.21,1.53,6.52,0,2.68-.55,4.99-1.66,6.93-1.11,1.94-2.73,2.91-4.85,2.91h-19.13v75.28c0,2.22-1.13,3.88-3.4,4.99-2.27,1.11-4.74,1.66-7.42,1.66s-5.15-.55-7.42-1.66c-2.27-1.11-3.4-2.77-3.4-4.99v-75.28h-19.13c-2.13,0-3.74-.97-4.85-2.91-1.11-1.94-1.66-4.25-1.66-6.93,0-2.31.51-4.48,1.53-6.52,1.02-2.03,2.68-3.05,4.99-3.05h59.9Z"/>
        <path class="cls-1" d="M1313.27,370.87c0-.74-.19-1.39-.55-1.94l-28.7-47.56c-.19-.37-.28-.88-.28-1.53,0-1.29.49-2.47,1.46-3.54.97-1.06,2.19-1.99,3.67-2.77,1.48-.78,3.07-1.41,4.78-1.87,1.71-.46,3.3-.69,4.78-.69,1.75,0,3.05.35,3.88,1.04.83.69,1.62,1.69,2.36,2.98l19.41,35.63,19.27-35.63c.74-1.29,1.53-2.29,2.36-2.98.83-.69,2.12-1.04,3.88-1.04,1.48,0,3.07.23,4.78.69,1.71.46,3.3,1.09,4.78,1.87,1.48.79,2.7,1.71,3.67,2.77.97,1.06,1.46,2.24,1.46,3.54,0,.65-.09,1.16-.28,1.53l-28.56,47.56c-.37.55-.55,1.2-.55,1.94v34.8c0,2.22-1.13,3.88-3.4,4.99-2.27,1.11-4.74,1.66-7.42,1.66s-5.15-.55-7.42-1.66c-2.27-1.11-3.4-2.77-3.4-4.99v-34.8Z"/>
      </g>
    </g>
  </g>
</svg>