<?xml version="1.0" encoding="UTF-8"?>
<svg id="Layer_2" data-name="Layer 2" xmlns="http://www.w3.org/2000/svg" xmlns:xlink="http://www.w3.org/1999/xlink" viewBox="0 0 2234.67 1973.23">
  <defs>
    <style>
      .cls-1 {
        fill: #fff;
      }

      .cls-2 {
        fill: url(#New_Pattern);
      }

      .cls-3 {
        fill: none;
      }
    </style>
    <pattern id="New_Pattern" data-name="New Pattern" x="0" y="0" width="965.05" height="1000" patternTransform="translate(4339.99 -4130.44)" patternUnits="userSpaceOnUse" viewBox="0 0 965.05 1000">
      <g>
        <rect class="cls-3" width="965.05" height="1000"/>
        <g>
          <path class="cls-1" d="M479.5,952.59v102.52c0,3.04-3.25,4.97-5.91,3.51-7.83-4.3-19.08-7-31.59-7-14.59,0-27.46,3.67-35.2,9.27-1.37.99-3.23.99-4.6,0-7.74-5.6-20.61-9.27-35.2-9.27-12.51,0-23.76,2.7-31.59,7-2.66,1.46-5.91-.47-5.91-3.51v-102.52c0-.95.32-1.88.95-2.59,21-23.79,63.04-4.48,72.25.18,1.14.57,2.48.57,3.61,0,9.2-4.65,51.24-23.96,72.25-.18.63.71.95,1.64.95,2.59Z"/>
          <path class="cls-1" d="M696.91,970.73c.78,12.91-3.47,24.82-10.98,33.95-11.95,17.5-14.94,28.71-15.67,32.71-.17.95-1,1.65-1.97,1.65h-40.1c-.97,0-1.79-.69-1.97-1.65-.73-4-3.72-15.21-15.67-32.71-6.91-8.41-11.07-19.19-11.07-30.94,0-27.56,22.87-49.78,50.69-48.71,24.84.96,45.23,20.88,46.73,45.69Z"/>
          <path class="cls-1" d="M868.58,1032.83l12.35,32.76c.39,1.03-.13,2.19-1.16,2.58l-12.77,4.82c-1.03.39-2.19-.13-2.58-1.17l-12.35-32.75c-.44-1.18-1.86-1.66-2.93-.99l-29.08,18.05c-1.34.83-3.07-.14-3.05-1.71l.97-125.53c.01-1.83,2.27-2.68,3.49-1.32l83.58,93.64c1.05,1.17.39,3.04-1.16,3.3l-33.75,5.65c-1.24.21-1.99,1.5-1.54,2.68Z"/>
          <path class="cls-1" d="M207.38,1022.29c-8,33.4-36.34,55.24-63.27,48.79-3.06-.73-5.96-1.8-8.7-3.17-.57-.28-1.22-.28-1.79,0-2.74,1.37-5.67,2.43-8.73,3.17-26.92,6.45-55.24-15.39-63.26-48.79-8-33.42,7.34-65.72,34.28-72.19,11.52-2.75,23.27-.34,33.6,5.93,1.01.61,2.29-.12,2.27-1.3-.1-5.62-1.8-15.09-11.77-17.95-1.59-.46-2.51-2.12-2.05-3.71.45-1.59,2.11-2.51,3.71-2.06,5.1,1.46,8.7,4.24,11.17,7.59.6.82,1.85.78,2.42-.06,4.32-6.37,12.28-13.54,25.2-9.64,1,.3,1.62,1.32,1.39,2.34-1.14,5.15-5.85,19.63-22.69,17.52-1-.13-1.83.72-1.68,1.71.2,1.36.3,2.7.34,3.97.03,1.15,1.27,1.83,2.25,1.25,10.19-6.03,21.75-8.31,33.05-5.6,26.93,6.47,42.27,38.77,34.27,72.19Z"/>
        </g>
        <g>
          <path class="cls-1" d="M962.03,702.59v102.52c0,3.04-3.25,4.97-5.91,3.51-7.83-4.3-19.08-7-31.59-7-14.59,0-27.46,3.67-35.2,9.27-1.37.99-3.23.99-4.6,0-7.74-5.6-20.61-9.27-35.2-9.27-12.51,0-23.76,2.7-31.59,7-2.66,1.46-5.91-.47-5.91-3.51v-102.52c0-.95.32-1.88.95-2.59,21-23.79,63.04-4.48,72.25.18,1.14.57,2.48.57,3.61,0,9.2-4.65,51.24-23.96,72.25-.18.63.71.95,1.64.95,2.59Z"/>
          <path class="cls-1" d="M689.91,772.29c-8,33.4-36.34,55.24-63.27,48.79-3.06-.73-5.96-1.8-8.7-3.17-.57-.28-1.22-.28-1.79,0-2.74,1.37-5.67,2.43-8.73,3.17-26.92,6.45-55.24-15.39-63.26-48.79-8-33.42,7.34-65.72,34.28-72.19,11.52-2.75,23.27-.34,33.6,5.93,1.01.61,2.29-.12,2.27-1.3-.1-5.62-1.8-15.09-11.77-17.95-1.59-.46-2.51-2.12-2.05-3.71.45-1.59,2.11-2.51,3.71-2.06,5.1,1.46,8.7,4.24,11.17,7.59.6.82,1.85.78,2.42-.06,4.32-6.37,12.28-13.54,25.2-9.64,1,.3,1.62,1.32,1.39,2.34-1.14,5.15-5.85,19.63-22.69,17.52-1-.13-1.83.72-1.68,1.71.2,1.36.3,2.7.34,3.97.03,1.15,1.27,1.83,2.25,1.25,10.19-6.03,21.75-8.31,33.05-5.6,26.93,6.47,42.27,38.77,34.27,72.19Z"/>
        </g>
        <g>
          <g>
            <path class="cls-1" d="M214.39,720.73c.78,12.91-3.47,24.82-10.98,33.95-11.95,17.5-14.94,28.71-15.67,32.71-.17.95-1,1.65-1.97,1.65h-40.1c-.97,0-1.79-.69-1.97-1.65-.73-4-3.72-15.21-15.67-32.71-6.91-8.41-11.07-19.19-11.07-30.94,0-27.56,22.87-49.78,50.69-48.71,24.84.96,45.23,20.88,46.73,45.69Z"/>
            <rect class="cls-1" x="143.94" y="792.16" width="43.57" height="6.23" rx="3.12" ry="3.12"/>
            <rect class="cls-1" x="143.94" y="801.5" width="43.57" height="6.23" rx="3.12" ry="3.12"/>
            <path class="cls-1" d="M178.36,810.85c1.25,0,2.2,1.14,1.97,2.37-1.25,6.68-7.7,11.77-15.47,11.77s-14.22-5.09-15.47-11.77c-.23-1.23.72-2.37,1.97-2.37h26.99Z"/>
          </g>
          <path class="cls-1" d="M386.06,782.83l12.35,32.76c.39,1.03-.13,2.19-1.16,2.58l-12.77,4.82c-1.03.39-2.19-.13-2.58-1.17l-12.35-32.75c-.44-1.18-1.86-1.66-2.93-.99l-29.08,18.05c-1.34.83-3.07-.14-3.05-1.71l.97-125.53c.01-1.83,2.27-2.68,3.49-1.32l83.58,93.64c1.05,1.17.39,3.04-1.16,3.3l-33.75,5.65c-1.24.21-1.99,1.5-1.54,2.68Z"/>
        </g>
        <g>
          <path class="cls-1" d="M479.5,452.59v102.52c0,3.04-3.25,4.97-5.91,3.51-7.83-4.3-19.08-7-31.59-7-14.59,0-27.46,3.67-35.2,9.27-1.37.99-3.23.99-4.6,0-7.74-5.6-20.61-9.27-35.2-9.27-12.51,0-23.76,2.7-31.59,7-2.66,1.46-5.91-.47-5.91-3.51v-102.52c0-.95.32-1.88.95-2.59,21-23.79,63.04-4.48,72.25.18,1.14.57,2.48.57,3.61,0,9.2-4.65,51.24-23.96,72.25-.18.63.71.95,1.64.95,2.59Z"/>
          <g>
            <path class="cls-1" d="M696.91,470.73c.78,12.91-3.47,24.82-10.98,33.95-11.95,17.5-14.94,28.71-15.67,32.71-.17.95-1,1.65-1.97,1.65h-40.1c-.97,0-1.79-.69-1.97-1.65-.73-4-3.72-15.21-15.67-32.71-6.91-8.41-11.07-19.19-11.07-30.94,0-27.56,22.87-49.78,50.69-48.71,24.84.96,45.23,20.88,46.73,45.69Z"/>
            <rect class="cls-1" x="626.47" y="542.16" width="43.57" height="6.23" rx="3.12" ry="3.12"/>
            <rect class="cls-1" x="626.47" y="551.5" width="43.57" height="6.23" rx="3.12" ry="3.12"/>
            <path class="cls-1" d="M660.88,560.85c1.25,0,2.2,1.14,1.97,2.37-1.25,6.68-7.7,11.77-15.47,11.77s-14.22-5.09-15.47-11.77c-.23-1.23.72-2.37,1.97-2.37h26.99Z"/>
          </g>
          <path class="cls-1" d="M868.58,532.83l12.35,32.76c.39,1.03-.13,2.19-1.16,2.58l-12.77,4.82c-1.03.39-2.19-.13-2.58-1.17l-12.35-32.75c-.44-1.18-1.86-1.66-2.93-.99l-29.08,18.05c-1.34.83-3.07-.14-3.05-1.71l.97-125.53c.01-1.83,2.27-2.68,3.49-1.32l83.58,93.64c1.05,1.17.39,3.04-1.16,3.3l-33.75,5.65c-1.24.21-1.99,1.5-1.54,2.68Z"/>
          <path class="cls-1" d="M207.38,522.29c-8,33.4-36.34,55.24-63.27,48.79-3.06-.73-5.96-1.8-8.7-3.17-.57-.28-1.22-.28-1.79,0-2.74,1.37-5.67,2.43-8.73,3.17-26.92,6.45-55.24-15.39-63.26-48.79-8-33.42,7.34-65.72,34.28-72.19,11.52-2.75,23.27-.34,33.6,5.93,1.01.61,2.29-.12,2.27-1.3-.1-5.62-1.8-15.09-11.77-17.95-1.59-.46-2.51-2.12-2.05-3.71.45-1.59,2.11-2.51,3.71-2.06,5.1,1.46,8.7,4.24,11.17,7.59.6.82,1.85.78,2.42-.06,4.32-6.37,12.28-13.54,25.2-9.64,1,.3,1.62,1.32,1.39,2.34-1.14,5.15-5.85,19.63-22.69,17.52-1-.13-1.83.72-1.68,1.71.2,1.36.3,2.7.34,3.97.03,1.15,1.27,1.83,2.25,1.25,10.19-6.03,21.75-8.31,33.05-5.6,26.93,6.47,42.27,38.77,34.27,72.19Z"/>
        </g>
        <g>
          <path class="cls-1" d="M962.03,202.59v102.52c0,3.04-3.25,4.97-5.91,3.51-7.83-4.3-19.08-7-31.59-7-14.59,0-27.46,3.67-35.2,9.27-1.37.99-3.23.99-4.6,0-7.74-5.6-20.61-9.27-35.2-9.27-12.51,0-23.76,2.7-31.59,7-2.66,1.46-5.91-.47-5.91-3.51v-102.52c0-.95.32-1.88.95-2.59,21-23.79,63.04-4.48,72.25.18,1.14.57,2.48.57,3.61,0,9.2-4.65,51.24-23.96,72.25-.18.63.71.95,1.64.95,2.59Z"/>
          <path class="cls-1" d="M689.91,272.29c-8,33.4-36.34,55.24-63.27,48.79-3.06-.73-5.96-1.8-8.7-3.17-.57-.28-1.22-.28-1.79,0-2.74,1.37-5.67,2.43-8.73,3.17-26.92,6.45-55.24-15.39-63.26-48.79-8-33.42,7.34-65.72,34.28-72.19,11.52-2.75,23.27-.34,33.6,5.93,1.01.61,2.29-.12,2.27-1.3-.1-5.62-1.8-15.09-11.77-17.95-1.59-.46-2.51-2.12-2.05-3.71.45-1.59,2.11-2.51,3.71-2.06,5.1,1.46,8.7,4.24,11.17,7.59.6.82,1.85.78,2.42-.06,4.32-6.37,12.28-13.54,25.2-9.64,1,.3,1.62,1.32,1.39,2.34-1.14,5.15-5.85,19.63-22.69,17.52-1-.13-1.83.72-1.68,1.71.2,1.36.3,2.7.34,3.97.03,1.15,1.27,1.83,2.25,1.25,10.19-6.03,21.75-8.31,33.05-5.6,26.93,6.47,42.27,38.77,34.27,72.19Z"/>
        </g>
        <g>
          <g>
            <path class="cls-1" d="M214.39,220.73c.78,12.91-3.47,24.82-10.98,33.95-11.95,17.5-14.94,28.71-15.67,32.71-.17.95-1,1.65-1.97,1.65h-40.1c-.97,0-1.79-.69-1.97-1.65-.73-4-3.72-15.21-15.67-32.71-6.91-8.41-11.07-19.19-11.07-30.94,0-27.56,22.87-49.78,50.69-48.71,24.84.96,45.23,20.88,46.73,45.69Z"/>
            <rect class="cls-1" x="143.94" y="292.16" width="43.57" height="6.23" rx="3.12" ry="3.12"/>
            <rect class="cls-1" x="143.94" y="301.51" width="43.57" height="6.23" rx="3.12" ry="3.12"/>
            <path class="cls-1" d="M178.36,310.85c1.25,0,2.2,1.14,1.97,2.37-1.25,6.68-7.7,11.77-15.47,11.77s-14.22-5.09-15.47-11.77c-.23-1.23.72-2.37,1.97-2.37h26.99Z"/>
          </g>
          <path class="cls-1" d="M386.06,282.83l12.35,32.76c.39,1.03-.13,2.19-1.16,2.58l-12.77,4.82c-1.03.39-2.19-.13-2.58-1.17l-12.35-32.75c-.44-1.18-1.86-1.66-2.93-.99l-29.08,18.05c-1.34.83-3.07-.14-3.05-1.71l.97-125.53c.01-1.83,2.27-2.68,3.49-1.32l83.58,93.64c1.05,1.17.39,3.04-1.16,3.3l-33.75,5.65c-1.24.21-1.99,1.5-1.54,2.68Z"/>
        </g>
        <g>
          <path class="cls-1" d="M479.5-47.41V55.11c0,3.04-3.25,4.97-5.91,3.51-7.83-4.3-19.08-7-31.59-7-14.59,0-27.46,3.67-35.2,9.27-1.37.99-3.23.99-4.6,0-7.74-5.6-20.61-9.27-35.2-9.27-12.51,0-23.76,2.7-31.59,7-2.66,1.46-5.91-.47-5.91-3.51V-47.41c0-.95.32-1.88.95-2.59,21-23.79,63.04-4.48,72.25.18,1.14.57,2.48.57,3.61,0,9.2-4.65,51.24-23.96,72.25-.18.63.71.95,1.64.95,2.59Z"/>
          <g>
            <path class="cls-1" d="M696.91-29.27c.78,12.91-3.47,24.82-10.98,33.95-11.95,17.5-14.94,28.71-15.67,32.71-.17.95-1,1.65-1.97,1.65h-40.1c-.97,0-1.79-.69-1.97-1.65-.73-4-3.72-15.21-15.67-32.71-6.91-8.41-11.07-19.19-11.07-30.94,0-27.56,22.87-49.78,50.69-48.71,24.84.96,45.23,20.88,46.73,45.69Z"/>
            <rect class="cls-1" x="626.47" y="42.16" width="43.57" height="6.23" rx="3.12" ry="3.12"/>
            <rect class="cls-1" x="626.47" y="51.51" width="43.57" height="6.23" rx="3.12" ry="3.12"/>
            <path class="cls-1" d="M660.88,60.85c1.25,0,2.2,1.14,1.97,2.37-1.25,6.68-7.7,11.77-15.47,11.77s-14.22-5.09-15.47-11.77c-.23-1.23.72-2.37,1.97-2.37h26.99Z"/>
          </g>
          <path class="cls-1" d="M868.58,32.83l12.35,32.76c.39,1.03-.13,2.19-1.16,2.58l-12.77,4.82c-1.03.39-2.19-.13-2.58-1.17l-12.35-32.75c-.44-1.18-1.86-1.66-2.93-.99l-29.08,18.05c-1.34.83-3.07-.14-3.05-1.71l.97-125.53c.01-1.83,2.27-2.68,3.49-1.32l83.58,93.64c1.05,1.17.39,3.04-1.16,3.3l-33.75,5.65c-1.24.21-1.99,1.5-1.54,2.68Z"/>
          <path class="cls-1" d="M207.38,22.29c-8,33.4-36.34,55.24-63.27,48.79-3.06-.73-5.96-1.8-8.7-3.17-.57-.28-1.22-.28-1.79,0-2.74,1.37-5.67,2.43-8.73,3.17-26.92,6.45-55.24-15.39-63.26-48.79-8-33.42,7.34-65.72,34.28-72.19,11.52-2.75,23.27-.34,33.6,5.93,1.01.61,2.29-.12,2.27-1.3-.1-5.62-1.8-15.09-11.77-17.95-1.59-.46-2.51-2.12-2.05-3.71.45-1.59,2.11-2.51,3.71-2.06,5.1,1.46,8.7,4.24,11.17,7.59.6.82,1.85.78,2.42-.06,4.32-6.37,12.28-13.54,25.2-9.64,1,.3,1.62,1.32,1.39,2.34-1.14,5.15-5.85,19.63-22.69,17.52-1-.13-1.83.72-1.68,1.71.2,1.36.3,2.7.34,3.97.03,1.15,1.27,1.83,2.25,1.25,10.19-6.03,21.75-8.31,33.05-5.6,26.93,6.47,42.27,38.77,34.27,72.19Z"/>
        </g>
      </g>
    </pattern>
  </defs>
  <g id="Layer_2-2" data-name="Layer 2">
    <rect class="cls-2" width="2234.67" height="1973.23"/>
  </g>
</svg>