<?xml version="1.0" encoding="UTF-8"?>
<svg id="Layer_2" data-name="Layer 2" xmlns="http://www.w3.org/2000/svg" viewBox="0 0 93.96 93.85">
  <defs>
    <style>
      .cls-1 {
        fill: #ffd670;
        stroke-width: 0px;
      }
    </style>
  </defs>
  <g id="Layer_2-2" data-name="Layer 2">
    <g>
      <path class="cls-1" d="M3.35,42.12c1.66,0,2.84-.47,3.56-1.4.72-.94,1.08-2.45,1.08-4.54V13.61c0-3.31.56-5.96,1.67-7.94,1.12-1.98,2.92-3.42,5.4-4.32C17.55.45,20.81,0,24.84,0h4.64s0,9.4,0,9.4c-3.82,0-6.48.59-7.99,1.78-1.51,1.19-2.27,3.15-2.27,5.89v18.47c0,2.52-.43,4.36-1.3,5.51-.86,1.15-2.05,2.12-3.56,2.92-1.51.79-3.28,1.94-5.29,3.46l-5.72,4.32H0s0-9.61,0-9.61h3.35ZM9.07,46.44c2.02,1.51,3.78,2.66,5.29,3.46,1.51.79,2.7,1.77,3.56,2.92.86,1.15,1.3,3.02,1.3,5.62v18.36c0,2.66.76,4.61,2.27,5.83,1.51,1.22,4.18,1.84,7.99,1.84v9.4s-4.64,0-4.64,0c-4.03,0-7.29-.45-9.77-1.35-2.48-.9-4.28-2.36-5.4-4.37-1.12-2.02-1.67-4.64-1.67-7.88v-22.57c0-2.09-.36-3.6-1.08-4.54-.72-.94-1.91-1.4-3.56-1.4H0s0-9.61,0-9.61h3.35s5.72,4.32,5.72,4.32Z"/>
      <path class="cls-1" d="M90.61,42.12h3.35s0,9.61,0,9.61h-3.35s-5.72-4.32-5.72-4.32c-2.02-1.51-3.78-2.66-5.29-3.46-1.51-.79-2.7-1.76-3.56-2.92-.86-1.15-1.3-2.99-1.3-5.51v-18.47c0-2.74-.76-4.7-2.27-5.89-1.51-1.19-4.18-1.78-7.99-1.78V0s4.64,0,4.64,0c4.03,0,7.29.45,9.77,1.35,2.48.9,4.28,2.34,5.4,4.32,1.12,1.98,1.67,4.63,1.67,7.94v22.57c0,2.09.38,3.6,1.13,4.54.76.94,1.93,1.4,3.51,1.4ZM84.89,46.44l5.72-4.32h3.35s0,9.61,0,9.61h-3.35c-1.58,0-2.75.47-3.51,1.4-.76.94-1.13,2.45-1.13,4.54v22.57c0,3.24-.56,5.87-1.67,7.88-1.12,2.02-2.92,3.47-5.4,4.37-2.48.9-5.74,1.35-9.77,1.35h-4.64s0-9.4,0-9.4c3.82,0,6.48-.61,7.99-1.84,1.51-1.23,2.27-3.17,2.27-5.83v-18.36c0-2.59.43-4.46,1.3-5.62.86-1.15,2.05-2.12,3.56-2.92,1.51-.79,3.28-1.94,5.29-3.46Z"/>
    </g>
  </g>
</svg>